<svg width="28" height="20" viewBox="0 0 28 20" fill="none" xmlns="http://www.w3.org/2000/svg">
<path fill-rule="evenodd" clip-rule="evenodd" d="M22.9812 0.832885L14.0011 0.625L5.02097 0.832885C3.20628 0.869761 1.66784 2.17791 1.33974 3.96308C0.606155 7.95444 0.606155 12.0461 1.33974 16.0374C1.66784 17.8226 3.20627 19.1308 5.02096 19.1676L14.0011 19.3755L22.9812 19.1676C24.7959 19.1308 26.3343 17.8226 26.6624 16.0374C27.396 12.0461 27.396 7.95444 26.6624 3.96308C26.3343 2.17791 24.7959 0.869761 22.9812 0.832885ZM25.2511 8.75023C25.2511 9.44059 24.6914 10.0002 24.0011 10.0002H4.00107C3.31071 10.0002 2.75107 9.44059 2.75107 8.75023C2.75107 8.05987 3.31071 7.50023 4.00107 7.50023H24.0011C24.6914 7.50023 25.2511 8.05987 25.2511 8.75023Z" fill="white"/>
</svg>
