<svg width="18" height="25" viewBox="0 0 18 25" fill="none" xmlns="http://www.w3.org/2000/svg">
<path d="M8.74468 0.581293C8.38264 0.422562 8.02606 0.533606 7.79668 0.767215C7.57386 0.99414 7.46241 1.34048 7.54055 1.68967C7.66387 2.24085 7.729 2.81429 7.729 3.40331C7.729 4.74812 7.39007 5.69 6.80688 6.47081C6.21404 7.26454 5.35586 7.91073 4.27233 8.63984C4.2553 8.6513 4.23943 8.66441 4.22497 8.67898L4.09374 8.81123C1.76895 10.3132 0.229004 12.9283 0.229004 15.9033C0.229004 20.5632 4.0066 24.3408 8.6665 24.3408C13.3264 24.3408 17.104 20.5632 17.104 15.9033C17.104 14.5351 16.7781 13.2421 16.1994 12.0986C16.1524 12.0056 16.062 11.9422 15.9585 11.9295C15.855 11.9169 15.752 11.9567 15.684 12.0356C15.5958 12.1378 15.5095 12.2387 15.4245 12.338C14.3266 13.6208 13.4406 14.6559 11.6242 15.1183C11.547 15.138 11.499 15.1234 11.4649 15.1021C11.4248 15.0771 11.381 15.0271 11.351 14.9473C11.2884 14.7808 11.3152 14.5686 11.4435 14.4295C12.415 13.3763 13.1051 11.9466 13.3517 9.91266C13.8137 6.10278 12.0821 2.04454 8.74468 0.581293Z" fill="white"/>
</svg>
