<svg width="22" height="19" viewBox="0 0 22 19" fill="none" xmlns="http://www.w3.org/2000/svg">
<path fill-rule="evenodd" clip-rule="evenodd" d="M6.00243 0.691134C9.37283 0.437109 12.7582 0.453776 16.1259 0.740975L18.1556 0.914065C19.6887 1.04481 20.933 2.20833 21.1661 3.72927L21.2941 4.56467C21.7287 7.39956 21.6881 10.287 21.174 13.1086C20.9203 14.5008 19.7076 15.5125 18.2925 15.5125H7.07195C6.8138 15.5125 6.55968 15.5765 6.33229 15.6987L1.4438 18.3258C1.15326 18.4819 0.802039 18.4739 0.518936 18.3047C0.235832 18.1354 0.0625 17.8298 0.0625 17.5V6.85337C0.0625 3.63012 2.54676 0.951586 5.76089 0.709339L6.00243 0.691134ZM6 6.875C5.13706 6.875 4.4375 7.57455 4.4375 8.4375C4.4375 9.30044 5.13706 10 6 10C6.86294 10 7.5625 9.30044 7.5625 8.4375C7.5625 7.57455 6.86294 6.875 6 6.875ZM11 6.875C10.1371 6.875 9.4375 7.57455 9.4375 8.4375C9.4375 9.30044 10.1371 10 11 10C11.8629 10 12.5625 9.30044 12.5625 8.4375C12.5625 7.57455 11.8629 6.875 11 6.875ZM14.4375 8.4375C14.4375 7.57455 15.1371 6.875 16 6.875C16.8629 6.875 17.5625 7.57455 17.5625 8.4375C17.5625 9.30044 16.8629 10 16 10C15.1371 10 14.4375 9.30044 14.4375 8.4375Z" fill="white"/>
</svg>
