<svg width="29" height="20" viewBox="0 0 29 20" fill="none" xmlns="http://www.w3.org/2000/svg">
<path d="M8.44327 0.31501C8.87437 0.346488 9.22807 0.668632 9.29958 1.09492L11.55 14.5105L14.3488 4.74181C14.464 4.33955 14.8319 4.06237 15.2503 4.06252C15.6688 4.06267 16.0365 4.34012 16.1514 4.74247L18.0492 11.3847L19.1381 9.52612C19.3063 9.23896 19.6142 9.06252 19.947 9.06252H22.2681C22.6663 7.79467 23.8507 6.87502 25.25 6.87502C26.9759 6.87502 28.375 8.27413 28.375 10C28.375 11.7259 26.9759 13.125 25.25 13.125C23.8507 13.125 22.6663 12.2054 22.2681 10.9375H20.4843L18.5589 14.2239C18.3692 14.5477 18.0047 14.7272 17.6323 14.6801C17.26 14.633 16.9517 14.3684 16.8486 14.0076L15.2488 8.40823L12.2118 19.0082C12.0912 19.4293 11.6951 19.7107 11.2577 19.686C10.8204 19.6613 10.4585 19.3371 10.386 18.9051L8.08671 5.19823L6.44528 10.2878C6.32038 10.675 5.95993 10.9375 5.55303 10.9375H1.5C0.982233 10.9375 0.5625 10.5178 0.5625 10C0.5625 9.48225 0.982233 9.06252 1.5 9.06252H4.87033L7.48275 0.962262C7.61543 0.55088 8.01217 0.283532 8.44327 0.31501Z" fill="white"/>
</svg>
