<svg width="30" height="20" viewBox="0 0 30 20" fill="none" xmlns="http://www.w3.org/2000/svg">
<path fill-rule="evenodd" clip-rule="evenodd" d="M24.5813 0.221744L15.0025 0L5.42367 0.221744C3.488 0.261078 1.847 1.65644 1.49702 3.56062C0.714534 7.81807 0.714534 12.1825 1.49702 16.4399C1.847 18.3441 3.48799 19.7395 5.42366 19.7788L15.0025 20.0005L24.5813 19.7788C26.5169 19.7395 28.1579 18.3441 28.5079 16.4399C29.2904 12.1825 29.2904 7.81807 28.5079 3.56062C28.1579 1.65644 26.5169 0.261078 24.5813 0.221744ZM27.0024 8.66691C27.0024 9.40329 26.4055 10.0002 25.6691 10.0002H4.33577C3.5994 10.0002 3.00244 9.40329 3.00244 8.66691C3.00244 7.93053 3.5994 7.33358 4.33578 7.33358H25.6691C26.4055 7.33358 27.0024 7.93053 27.0024 8.66691Z" fill="white"/>
</svg>
